# xmcd
#
# Track frame offsets: 
#        150
#        19925
#        38524
#        56422
#        75353
#        94469
#        111874
#        130226
#        145717
#        168268
#        185076
#        204257
#
# Disc length: 2967 seconds
#
# Revision: 0
# Processed by: cddbd v1.4PL0 Copyright (c) Steve Scherf et al.
# Submitted via: ExactAudioCopy v0.95a3
#
DISCID=980b950c
DTITLE=Roberto Ciotti - Behind the door
DYEAR=2002
DGENRE=Blues
TTITLE0=Bella Chica
TTITLE1=Behind the Door
TTITLE2=I'm Full of Blues
TTITLE3=Magic Years
TTITLE4=Along the River
TTITLE5=My Soul
TTITLE6=Moon Rider
TTITLE7=You Are a Devil
TTITLE8=The Reason Why I Go
TTITLE9=You Can Change the Weather
TTITLE10=I Feel Good, Do You Feel the Same?
TTITLE11=Erano le Tre (Behind the Door)
EXTD=
EXTT0=
EXTT1=
EXTT2=
EXTT3=
EXTT4=
EXTT5=
EXTT6=
EXTT7=
EXTT8=
EXTT9=
EXTT10=
EXTT11=
PLAYORDER=
